<?xml version="1.0" encoding="utf-8"?>
<!-- Generated by IcoMoon.io -->
<!DOCTYPE svg PUBLIC "-//W3C//DTD SVG 1.1//EN" "http://www.w3.org/Graphics/SVG/1.1/DTD/svg11.dtd">
<svg version="1.1" xmlns="http://www.w3.org/2000/svg" xmlns:xlink="http://www.w3.org/1999/xlink" width="32" height="32" viewBox="0 0 32 32">
<g id="icomoon-ignore">
</g>
<path d="M20.938 17.125c0 0.188-0.063 0.313-0.188 0.438l-8.313 8.313c-0.125 0.125-0.313 0.188-0.438 0.188s-0.313-0.063-0.438-0.188l-0.875-0.875c-0.125-0.125-0.188-0.25-0.188-0.438 0-0.125 0.063-0.313 0.188-0.375l7-7.063-7-7c-0.125-0.125-0.188-0.25-0.188-0.438 0-0.125 0.063-0.25 0.188-0.375l0.875-0.875c0.125-0.125 0.313-0.188 0.438-0.188s0.313 0.063 0.438 0.188l8.313 8.313c0.125 0.125 0.188 0.25 0.188 0.375z" fill="#000000"></path>
</svg>
