<?xml version="1.0" encoding="iso-8859-1"?>
<!-- Generator: Adobe Illustrator 16.0.0, SVG Export Plug-In . SVG Version: 6.00 Build 0)  -->
<!DOCTYPE svg PUBLIC "-//W3C//DTD SVG 1.1//EN" "http://www.w3.org/Graphics/SVG/1.1/DTD/svg11.dtd">
<svg version="1.1" id="Capa_1" xmlns="http://www.w3.org/2000/svg" xmlns:xlink="http://www.w3.org/1999/xlink" x="0px" y="0px"
	 width="300.619px" height="300.618px" viewBox="0 0 300.619 300.618" style="enable-background:new 0 0 300.619 300.618;"
	 xml:space="preserve">
<g>
	<g>
		<g>
			<path d="M258.441,52.758c-4.283-2.448-8.567-3.672-12.853-4.284c3.673-2.448,6.12-5.508,8.568-8.568
				c3.672-6.732,3.061-14.688-3.672-19.584c-5.509-4.284-12.853-4.284-18.973-1.836c-3.672,1.836-6.12,4.284-8.567,6.732
				c0-3.06,0-6.12-0.612-8.568c-1.225-6.12-4.283-15.3-11.628-16.524c-7.344-1.224-13.464,6.732-15.912,12.852
				c-1.224,2.448-1.836,5.508-1.836,7.956c-8.567-10.404-22.645-16.524-34.271-7.956c-5.508,4.284-8.568,12.24-5.508,18.972
				c0.611,1.836,1.836,3.06,3.061,4.284c-3.673,3.06-6.731,7.344-9.18,12.24c-1.836-3.672-4.284-7.344-7.344-11.016
				c7.956-9.18,8.567-33.66-4.896-36.108c-14.076-2.448-25.704,11.628-29.376,23.868c-1.836-12.852-9.18-25.704-24.479-23.868
				c-7.344,0.612-12.24,6.12-13.464,12.852c-0.612,2.448,0,5.508,0.612,7.956c-13.464-8.568-31.824-13.464-36.72,3.06
				c-3.06,9.792,4.284,20.808,13.464,27.54c-7.956,3.672-14.688,10.404-16.524,19.584c-1.224,7.344,1.836,15.3,9.792,17.136
				c4.896,1.224,11.016,0.612,17.136-1.224c-9.18,11.628-14.076,29.376,1.836,37.332c7.956,4.284,17.748,2.448,25.092-2.448
				c5.508-3.672,12.24-11.628,14.076-18.972c3.06,0.612,6.12,0.612,9.792,0.612c-11.016,9.18-18.972,23.256-13.464,36.72
				c4.284,11.016,17.748,11.628,26.928,7.956c2.448-0.612,4.896-1.836,7.344-3.672c12.24,22.032,15.912,50.796,16.524,79.56
				c-9.18-3.672-23.256-4.896-25.704,7.346c-1.224,6.118,4.284,8.566,9.792,9.18c0.612,0,1.224,0,1.836,0.61
				c-0.612,0.612-1.836,1.226-2.448,1.838c-3.672,3.06-9.18,6.73-6.12,12.238c4.284,7.956,15.912,3.672,22.645-1.224
				c-0.612,15.3-0.612,30.6-0.612,43.452c0,2.448,3.061,2.448,3.672,0c1.836-15.3,2.448-31.212,2.448-46.512
				c3.671,0.61,7.344,1.224,11.016,1.224c-0.611,15.3,0,30.6,4.283,45.288c0.612,2.448,4.896,2.448,4.896-0.612
				c-1.837-59.364,14.688-107.712,36.107-160.956c6.731-0.612,12.239-4.284,14.688-12.852c1.224-5.508,0-9.792-1.836-14.076
				c1.224,0.612,2.447,1.224,3.06,1.836c7.345,3.672,15.912,3.672,22.645-0.612c6.732-4.284,9.181-12.852,6.732-20.196
				c-0.612-3.06-2.448-6.12-4.284-8.568c1.836,0,3.672-0.612,6.12-0.612c6.731-1.224,18.359-4.284,20.195-12.24
				C273.129,63.162,263.95,55.818,258.441,52.758z M127.473,11.142c9.18-3.06,9.18,7.956,8.568,14.076
				c-0.612,2.448-1.836,4.896-2.448,7.956c-6.12-4.896-15.3-9.792-22.645-7.344C114.009,18.486,120.13,13.59,127.473,11.142z
				 M84.633,70.506c-5.508,3.672-9.18,9.792-9.18,16.524c0,7.344,3.672,12.24,9.792,15.3c-5.508,7.344-9.792,17.136-20.196,15.912
				c-7.344-0.612-9.18-8.568-7.956-14.688c1.836-6.732,6.732-12.24,9.792-17.748c0.612-1.224,0.612-2.448,0-3.06
				c1.224-2.448,0.612-6.12-3.06-5.508c-5.508,0.612-11.016,2.448-16.524,3.06c-2.448,0.612-6.732,1.224-8.568-1.224
				c-1.224-1.836,0-4.896,0.612-6.12c2.448-6.12,8.568-11.016,14.688-13.464c5.508,1.836,11.016,2.448,15.912,0
				c2.448-1.224,1.836-4.896,0-6.12c-4.896-3.06-11.016-3.672-15.912-6.732c-4.284-2.448-12.24-8.568-12.24-14.076
				c-0.612-11.628,20.196-1.836,30.6,3.672c1.224,1.836,3.06,3.672,5.508,4.896c1.836,0.612,4.284,0,4.284-2.448l0,0
				c0.612-0.612,0.612-1.836,0-3.06c-0.612-0.612-0.612-1.224-1.224-1.836c-3.06-9.18-9.792-22.644,3.672-22.644
				c12.852,0,14.688,15.912,17.136,25.704c-0.612,4.896,0.612,10.404,1.836,15.3c-3.06-3.06-7.344-4.284-11.627-3.672
				c-5.508,0.612-10.404,4.284-11.628,9.792C79.126,63.162,80.962,67.446,84.633,70.506z M100.546,65.61
				c-3.672,0-6.732,0.612-10.404,1.836c0,0-0.612,0-0.612,0.612c0,0,0,0,0-0.612c-3.672-4.284-0.612-10.404,4.284-11.016
				c2.448,0,4.896,1.224,6.12,3.672C100.546,61.938,100.546,63.774,100.546,65.61z M125.025,235.746
				c-1.836-3.061,4.896-4.896,7.344-5.508c3.673,0,7.345,1.224,10.404,2.447c0,0.611,0,0.611,0,1.225
				c-1.836,1.224-4.284,2.448-6.12,4.284C134.207,238.194,126.25,238.194,125.025,235.746z M131.757,252.882
				c3.06-2.448,6.12-4.896,9.18-7.956c0.612,0,1.836,0,2.448,0c0,1.226,0,1.836,0,3.062l0,0c-3.061,1.836-6.12,3.672-9.18,4.284
				C132.981,252.882,132.369,252.882,131.757,252.882z M159.297,249.822c-3.672,0.61-7.344,0.61-11.016,0c0-1.836,0-3.672,0-5.508
				c0.612,0,1.225,0,2.448-0.612c1.224-0.612,1.835-1.225,1.835-2.448c2.448,0,5.509,0,8.568,0.612
				C159.91,244.926,159.297,247.374,159.297,249.822z M162.969,225.342c-4.284,0-8.568,0.612-12.853,1.226
				c-1.836,0-1.224,3.06,0.612,3.06c3.671,0,7.956,0,11.627,0.612c-0.611,3.06-1.225,5.508-1.836,8.566
				c-3.061,0-6.731,0.612-9.792,0.612l0,0c-0.612,0-0.612-0.612-1.224-0.612s-1.225,0-1.836,0l0.611-0.61
				c1.225-1.226,0.612-3.672-0.611-4.896c0.611-1.224,1.224-2.448-0.612-3.672c0,0,0,0-0.612,0
				c-0.611-11.016-1.836-22.032-3.06-33.66c-2.448-17.748-3.672-36.106-13.464-50.796c3.06-2.448,6.12-4.896,8.567-8.568
				c-2.447,7.344-3.06,15.3,0.612,22.032c4.284,7.956,13.464,14.076,22.645,11.628c18.359-4.896,17.748-26.314,11.017-41.004
				c6.731,3.672,15.3,7.344,23.256,8.568C183.166,165.366,169.702,194.742,162.969,225.342z M208.87,121.914
				c-1.836,17.748-33.66,1.224-41.004-1.836c0,0,0,0-0.612,0c-2.447-1.836-6.731,1.224-6.119,4.896
				c3.672,10.404,14.075,25.091,2.447,34.884c-6.731,6.119-14.075,0-17.136-6.732c-3.06-7.344-0.611-16.524,1.836-23.868
				c0.612-2.448-2.447-4.896-4.283-3.672c-0.612-1.836-3.061-3.06-4.896-1.836c-7.344,5.508-28.764,28.152-36.108,14.076
				c-6.731-12.24,7.956-26.928,19.584-33.66c2.448-0.612,4.896-1.224,6.732-2.448c3.672-1.836,1.836-7.344-1.836-7.344
				c-7.956,0-42.228,4.896-41.004-9.18c1.224-13.464,22.032-10.404,34.271-8.568c3.061,1.836,6.732,3.672,9.792,4.284
				c3.672,0.612,8.568-4.284,4.284-7.344c-6.12-4.284-12.24-7.956-16.523-14.076c-3.061-4.284-8.568-14.076-6.732-20.196
				c3.06-9.18,17.136,3.06,20.808,6.732c5.509,5.508,7.956,12.24,11.017,18.972c1.224,2.448,5.508,1.224,5.508-1.224
				c0-0.612,0-0.612,0-1.224c6.731-7.956,7.956-25.092,22.644-22.644c10.403,1.836,9.181,16.524,3.672,25.704
				c-2.447,2.448-4.896,4.284-6.119,6.732c0,0-0.612,0-0.612,0.612c-1.836,0.612-1.836,4.284,0.612,4.284
				c1.224,1.224,2.447,1.836,3.672,0.612c8.567-5.508,25.092-20.808,35.496-14.076c12.852,8.568-14.076,34.884-25.093,29.376
				c-3.061-1.224-4.896,1.224-4.896,3.06h-0.611c-3.061,0.612-3.061,4.896,0,6.12C188.061,106.002,210.706,105.39,208.87,121.914z
				 M206.421,101.106c-1.836-1.224-3.672-1.836-5.508-3.06c1.225-0.612,2.447-1.224,3.672-1.836
				C204.585,97.434,205.198,99.27,206.421,101.106z M260.277,69.282c-1.224,2.448-12.852,4.284-15.3,4.896
				c-4.896,0.612-8.567-1.224-13.464-3.06c-3.061-1.224-6.12,2.448-5.509,5.508c0,1.224,0.612,1.836,1.225,2.448
				c0.612,0,0.612,0.612,1.225,0.612c0.611,0.612,1.225,1.224,2.447,1.836c3.673,3.06,7.345,6.732,8.568,11.628
				c1.224,5.508-0.612,11.016-6.731,11.628c-10.404,0.612-14.076-9.18-20.809-14.688c7.344-6.732,12.853-14.688,9.792-25.092
				c-4.284-15.912-20.809-13.464-34.885-6.732c1.837-8.568,0.612-17.748-5.508-22.644c-5.509-4.284-12.853-4.896-18.973-2.448
				c-2.447-2.448-3.061-5.508-1.836-8.568c2.448-4.896,8.568-6.12,13.464-4.284c9.792,3.06,12.853,12.24,19.584,18.36
				c1.837,1.836,4.896,0.612,4.896-1.836c0.612-0.612,1.225-1.836,1.225-3.06c-0.611-4.284-1.225-8.568,0-12.24
				c1.225-3.06,4.284-11.628,9.181-9.792c3.061,1.224,4.284,11.016,3.672,13.464c0,4.896-2.447,8.568-3.061,12.852
				c0.612,1.836,2.448,3.672,4.896,3.672c1.225,1.836,3.672,2.448,5.509,0.612c4.896-7.344,12.853-20.196,23.256-15.3
				c15.912,6.732-12.853,19.584-15.912,23.256c-2.447,2.448,0,7.344,3.672,6.12c0,0,0,0,0.612,0
				c0.611,0.612,1.836,1.224,3.061,0.612c5.508-1.224,11.016,0,15.911,1.836C252.933,59.49,262.114,64.998,260.277,69.282z"/>
			<path d="M161.133,83.97c-4.284-3.672-11.017-3.672-15.3-0.612c-0.612-0.612-1.836-1.224-3.061,0
				c-6.12,5.508-11.628,15.3-5.508,23.256c6.12,7.344,18.359,6.12,24.479,0C167.866,100.494,168.477,90.09,161.133,83.97z
				 M155.625,101.718c-3.672,3.06-11.016,4.896-14.075,0c-1.836-3.06-0.612-7.344,1.224-11.016c0.612,0.612,1.836,0.612,3.061,0
				c3.06-3.672,8.566-4.896,11.627-0.612C160.521,93.762,159.297,98.658,155.625,101.718z"/>
		</g>
	</g>
</g>
<g>
</g>
<g>
</g>
<g>
</g>
<g>
</g>
<g>
</g>
<g>
</g>
<g>
</g>
<g>
</g>
<g>
</g>
<g>
</g>
<g>
</g>
<g>
</g>
<g>
</g>
<g>
</g>
<g>
</g>
</svg>
