<?xml version="1.0" encoding="iso-8859-1"?>
<!-- Generator: Adobe Illustrator 16.0.0, SVG Export Plug-In . SVG Version: 6.00 Build 0)  -->
<!DOCTYPE svg PUBLIC "-//W3C//DTD SVG 1.1//EN" "http://www.w3.org/Graphics/SVG/1.1/DTD/svg11.dtd">
<svg version="1.1" id="Capa_1" xmlns="http://www.w3.org/2000/svg" xmlns:xlink="http://www.w3.org/1999/xlink" x="0px" y="0px"
	 width="379.195px" height="379.195px" viewBox="0 0 379.195 379.195" style="enable-background:new 0 0 379.195 379.195;"
	 xml:space="preserve">
<g>
	<path d="M323.564,247.842c-6.732-7.956-14.076-14.076-22.645-18.359c0-0.612,0-0.612,0-1.225c0-27.54,10.404-77.723-14.688-97.919
		c-4.284-3.672-9.792-6.12-15.301-7.956c1.225-15.3,1.837-30.6,1.837-46.512c0-0.612,0-1.224,0-1.836
		c1.224-1.224,1.836-3.06,3.06-4.896c0.612-1.836-0.612-3.672-2.448-3.672c0.612-5.508,0.612-11.628-2.448-15.912
		c-6.119-8.568-22.644-11.628-38.556-12.852c9.792-9.18,17.136-23.868,6.12-33.048c-9.18-7.956-20.808-1.836-23.256,7.956
		c-7.956-7.344-21.42-13.464-28.152-3.06c-6.12,9.18,3.06,19.584,12.852,25.704c-17.136-1.836-39.168-5.508-52.02,7.956
		c-17.136,18.36-14.076,58.14-7.956,80.784c-13.464,1.836-25.704,6.12-34.272,15.912c-19.584,22.032-9.792,67.931-5.508,94.859
		c-11.628,1.837-23.256,4.284-32.436,10.404c-34.884,22.032-33.66,86.904-29.988,122.4c0,1.224,0.612,1.836,1.836,2.448
		c-0.612,1.836,0.612,3.672,3.06,3.672c94.86,9.18,194.003,7.344,289.475,2.447c4.284,0,5.508-5.508,3.061-7.956
		c1.224-0.611,1.836-1.836,2.447-3.06C344.372,324.954,349.88,280.89,323.564,247.842z M201.164,11.611
		c6.12-1.224,12.24,4.284,15.3,9.18c1.836,3.06,5.508,0.612,4.896-1.836c-1.225-3.672,0-7.344,2.447-9.792
		c2.448-0.612,4.896-1.224,7.956-1.836c12.853,4.284,3.061,15.912-1.836,19.584c-3.672,3.06-7.956,5.508-11.016,9.18
		c-0.612,0-1.224,0-1.836,0c0-0.612-0.612-1.224-1.836-1.836c-6.732-3.672-12.853-8.568-17.136-15.3
		C195.044,14.67,195.656,12.834,201.164,11.611z M157.101,53.227c14.076-16.524,44.676-7.956,64.871-5.508
		c1.836,0,33.049,2.448,37.332,5.508c6.12,4.896,5.509,11.628,4.896,18.36c-3.672,2.448-7.344,4.284-12.853,4.284
		c-7.956-0.612-12.852-6.12-17.748-11.628c-0.611-1.224-1.836-0.612-2.447,0c-1.225,0-1.836,0-2.448,1.224
		c-3.061,4.896-6.12,9.792-12.24,9.792c-6.731,0-12.24-6.12-12.24-12.24c0-1.836-1.836-1.836-3.06-1.224
		c-1.224-1.836-3.672-1.836-4.896,0c-2.447,4.284-6.119,8.568-11.015,9.18c-5.508,0-11.628-4.284-12.852-9.792l0,0
		c-0.612-1.836-3.672-3.06-4.896-1.224c-3.06,3.06-6.732,7.344-11.016,9.18c-2.448,0.612-4.896,0.612-7.344-1.224
		C150.98,62.407,153.429,57.511,157.101,53.227z M146.697,74.646c1.224,0.612,3.06,1.836,4.284,1.836
		c8.568,1.836,15.912-4.284,19.584-11.016c3.06,14.688,25.092,15.912,30.6,1.836c0.612,7.344,6.12,14.076,14.076,14.688
		c6.731,1.224,15.3-3.06,18.359-9.792c6.12,10.404,20.196,13.464,31.213,9.18c0.611,13.464,1.224,26.928,2.447,40.392
		c-24.479-5.508-56.916,0.612-77.723,0.612c-12.852,0-28.764-1.224-44.064,0.612C144.249,107.695,142.413,89.947,146.697,74.646z
		 M194.432,132.787c20.809-0.612,52.021-6.12,72.217,0.612c9.792,3.06,15.3,11.016,18.972,20.808c-0.612,0-1.224,0-1.836,0.612
		c-3.061,1.836-6.12,4.284-9.792,3.06c-3.061-1.224-4.896-4.284-5.508-7.956c0-0.612,0-0.612,0-1.224
		c0-1.836-1.225-2.448-2.448-3.06c-1.224-0.612-3.061,0-3.672,1.836v0.612c-6.12,9.792-22.032,17.136-27.54,0
		c-1.225-3.06-6.12-3.672-6.732,0c-4.284,14.688-20.808,16.524-28.151,3.06c-1.225-2.448-5.509-1.224-5.509,1.224
		c-1.836,3.06-3.671,6.12-6.731,7.956c-14.076,0.612-20.196-3.672-18.36-14.076c0.612-2.448-3.672-3.672-4.896-1.224
		c-2.448,4.284-4.896,8.568-8.568,12.24c-6.732,5.508-23.256,7.344-20.808-6.12c0.612-3.672-4.896-5.508-5.508-1.836
		c0,0.612,0,1.224,0,1.836c-1.224,0-2.448,0.612-3.06,1.836c-3.06,8.568-12.24,11.016-17.748,6.12
		C120.993,125.442,167.504,133.398,194.432,132.787z M106.305,167.059c7.956,5.508,19.584,3.06,23.868-6.12
		c2.448,5.508,7.956,9.18,14.688,9.792c9.792,0.612,17.136-6.12,21.42-14.076c6.12,13.464,25.704,16.524,31.824,3.672
		c9.18,12.852,27.54,11.016,34.884-2.448c8.567,9.18,23.868,10.404,31.212,1.836c1.224,2.448,3.672,4.896,6.731,6.12
		c5.509,2.448,13.465,1.224,17.137-3.672c4.896,20.808,1.836,47.736,3.06,63.647c-23.868-7.344-51.408-4.283-76.5-3.06
		c-27.54,1.836-55.691,4.284-83.231,8.568c-7.344,1.224-15.3,1.836-23.256,2.447C106.917,213.57,102.632,186.643,106.305,167.059z
		 M81.212,250.902c35.496-14.076,83.844-12.853,121.175-15.3c32.437-1.837,80.172-10.404,105.265,15.3
		c1.836,2.448,3.672,4.284,5.508,6.731c-5.508,2.448-8.568,7.956-14.688,10.404c-3.06,1.224-6.731,1.836-10.403,1.224
		c-3.672-0.611-11.017-3.672-9.181-8.567c0.612-1.836,0-4.284-1.836-4.896c-1.224-1.836-4.283-2.448-5.508,0
		c-3.672,4.896-7.344,9.792-13.464,11.017c-9.18,1.836-17.748-2.448-20.196-12.24c-1.224-3.672-6.731-3.672-7.956,0
		c-2.447,10.404-17.136,13.464-23.256,4.284c-1.224-1.836-3.672-1.225-4.896,0c-1.225,0-1.836,0-2.448,1.224
		c-6.12,12.24-22.644,16.524-28.764,2.448c0-1.836,0-3.672-1.224-6.12c-0.612-1.224-2.448-1.224-3.06-0.612
		c-3.672,4.284-4.284,9.792-10.404,11.628c-7.344,2.448-14.076-3.06-15.3-10.403c-0.612-3.672-6.12-4.284-6.12,0
		c0,1.224,0,1.836,0.612,3.06c-0.612-1.224-3.06-1.224-3.672,0.612c-6.732,14.688-15.912,14.688-25.704,0
		c-0.612-1.836-3.06-2.448-4.284-1.225c-4.284,4.284-9.18,7.956-14.688,9.792c-2.448,0.612-4.284,1.225-6.732,1.225
		c-7.344,1.224-11.628-2.448-12.852-11.628C70.809,257.022,75.705,253.35,81.212,250.902z M326.624,365.958
		c-94.248-0.612-189.107-2.448-283.355,1.224c0.612-25.703,0-69.155,15.912-95.472c1.836,3.672,5.508,6.732,9.792,8.568
		c12.852,4.284,26.316-1.836,33.66-11.628c9.18,12.239,28.152,14.075,31.824-4.896l0,0c2.448,8.568,9.792,14.688,18.972,14.076
		c5.508-0.612,14.076-5.508,15.912-12.24c6.12,14.076,27.54,15.912,33.047,0.612c7.956,11.628,23.868,10.404,31.212,0
		c4.284,6.12,11.017,11.016,19.584,11.628c7.345,0.612,14.688-2.448,19.585-7.956c3.06,5.508,10.403,9.792,16.523,10.404
		c8.568,0.611,25.704-4.284,28.764-14.688c15.912,28.152,11.017,65.484,7.345,96.696C325.4,363.51,326.012,364.734,326.624,365.958z
		"/>
</g>
<g>
</g>
<g>
</g>
<g>
</g>
<g>
</g>
<g>
</g>
<g>
</g>
<g>
</g>
<g>
</g>
<g>
</g>
<g>
</g>
<g>
</g>
<g>
</g>
<g>
</g>
<g>
</g>
<g>
</g>
</svg>
