<?xml version="1.0" encoding="iso-8859-1"?>
<!-- Generator: Adobe Illustrator 16.0.0, SVG Export Plug-In . SVG Version: 6.00 Build 0)  -->
<!DOCTYPE svg PUBLIC "-//W3C//DTD SVG 1.1//EN" "http://www.w3.org/Graphics/SVG/1.1/DTD/svg11.dtd">
<svg version="1.1" id="Capa_1" xmlns="http://www.w3.org/2000/svg" xmlns:xlink="http://www.w3.org/1999/xlink" x="0px" y="0px"
	 width="349.053px" height="349.053px" viewBox="0 0 349.053 349.053" style="enable-background:new 0 0 349.053 349.053;"
	 xml:space="preserve">
<g>
	<g>
		<path d="M344.463,175.235c-15.3-27.54-68.544-19.583-93.636-20.196c-27.54-1.224-55.692-1.836-83.232-2.448l0,0
			c0.612-7.956,1.836-15.912,0.612-23.868c16.524,0,32.436-0.612,47.736-2.448c1.836,0,3.061-1.836,3.061-3.06
			c0.612,0.612,1.836,1.836,2.448,2.448c0.611,0.612,1.836-0.612,1.224-1.224c-3.06-12.852,1.836-33.048,1.836-47.124
			c0-17.748,0.612-35.496-1.836-53.244c0-1.836-3.06-2.448-3.672-0.612c-3.672,21.42-4.284,43.452-4.284,65.484
			c0,9.792-2.448,22.644,2.448,31.212l0,0c-40.393-6.732-86.292-3.06-127.296-0.612c-3.06,0-2.448,4.284,0,4.284
			c16.524,1.224,33.66,3.06,51.408,4.284v0.612c0.612,7.956,0,15.3,1.836,23.256c0,0.612,0.612,0.612,0.612,1.224
			c-20.196-0.612-39.78-0.612-59.976-1.224c-3.672,0-8.568-0.612-13.464-0.612c0-4.896-2.448-9.792-6.12-13.464
			c-7.344-6.12-17.136-6.12-26.316-6.12c-1.224,0-3.06,1.224-3.06,2.448c-0.612,5.508-0.612,11.628,2.448,16.524l0,0
			c-15.3,1.836-28.764,7.956-32.436,24.479c0,1.225,0,1.836,0,2.448l0,0c-3.06,28.765-3.06,57.528-3.06,86.292
			c0,16.523-5.508,42.84,3.06,58.141c15.3,26.928,80.172,17.748,104.652,18.359c55.692,1.225,111.384,0.611,167.077-2.447
			c29.376-1.225,66.096,4.283,69.768-33.049c2.448-26.928,1.224-55.08,1.836-82.008C348.135,207.67,351.807,188.7,344.463,175.235z
			 M147.399,151.367c1.224-7.344,1.224-15.3,1.836-23.256l0,0c4.284,0,9.18,0.612,13.464,0.612c-0.612,7.956,0,15.912,0.612,23.868
			l0,0c-5.508,0-11.016,0-16.524-0.612C146.787,151.979,146.787,151.367,147.399,151.367z M40.299,137.292
			c9.18,0,21.42,2.448,22.644,12.24c-7.344-0.612-15.3-0.612-23.256,0l0.612-0.612C39.687,145.247,39.687,141.575,40.299,137.292z
			 M335.895,244.391c-0.611,15.301,2.448,36.107-1.836,50.184c-7.956,29.377-33.048,28.764-58.14,30.6
			c-17.748,1.225-36.108,1.838-53.856,2.449c-36.107,1.225-71.604,1.225-107.712,0.611c-17.748-0.611-36.108-0.611-53.856-1.223
			c-7.344,0-17.136,0.611-23.868-1.225c-30.6-8.568-26.316-20.197-26.316-39.168c0-29.377,0.612-59.365-0.612-88.74
			c10.404,1.836,20.196,3.061,30.6,3.672c11.016,1.225,22.644,3.061,33.66,1.225c-8.568,8.568-14.688,18.971-17.748,32.436
			c-9.18,46.512,27.54,85.068,70.992,91.801c42.84,6.73,85.68-17.137,94.249-61.201c4.896-22.645-2.448-44.064-15.912-59.977
			c41.615,3.672,85.067,7.346,126.684,4.896c4.896-0.611,4.896-6.732,0-7.344c-5.508-0.611-11.016-1.225-16.523-1.836h0.611
			c1.836-0.611,3.672-2.447,3.672-4.283c0-7.346,0-14.076,0-21.421c0-2.448-1.836-4.896-4.283-4.284
			c-11.629-0.612-22.645-0.612-33.66,4.284l0,0c-0.612,0-0.612,0-1.225,0.612l0,0c-0.611,0.611-0.611,1.224-0.611,1.836
			c-2.448,6.119-0.612,15.301,4.283,19.584c0.612,0.611,1.225,1.225,1.837,1.225c-28.152-0.613-56.916,0-85.068,1.223
			c-11.628-11.627-27.54-20.195-44.676-23.256c-2.448-0.611-3.672,0.612-4.896,2.449c-25.704-2.449-53.856,3.672-72.828,20.195
			c0-1.225-1.224-2.447-2.448-3.061c-10.404-3.672-22.032-3.059-33.048-3.672c-11.016-0.611-22.644-0.611-33.66-0.611
			c0-4.285-0.612-8.568-1.224-13.465c1.224,0,2.448-1.224,3.06-3.06c8.568-28.764,86.292-15.3,107.712-14.688
			c36.108,1.224,71.604,1.836,107.712,3.06c31.824,0.612,99.144-12.24,110.771,26.928
			C342.015,205.834,336.507,230.315,335.895,244.391z M151.683,183.803c0.612,0.611,1.224,1.225,2.448,1.225
			c93.023,17.135,59.364,153.611-32.436,130.355c-41.004-10.404-71.604-54.469-47.736-94.248
			C91.095,192.372,122.307,189.311,151.683,183.803z M291.831,192.983c-4.896-2.447-9.792-5.508-9.792-10.404
			c0.611,0.613,1.836,0.613,2.447,0.613c8.568-1.836,17.748-4.896,26.929-3.672c0,4.283,0,9.18,0,13.463
			C304.683,194.208,297.951,195.432,291.831,192.983z"/>
		<path d="M153.519,202.776c-1.836,0-3.06,1.836-3.672,3.059c-24.48-7.955-52.02-3.672-66.096,20.809
			c-15.912,28.152,3.672,59.363,30.6,72.217c27.54,13.463,60.588,2.447,71.604-26.316
			C195.135,248.674,185.955,200.327,153.519,202.776z M168.207,280.499c-16.524,18.361-42.228,16.525-60.588,1.836
			c-18.972-14.688-27.54-38.555-9.792-58.139c15.912-17.748,41.004-17.137,61.812-10.404
			C182.895,226.643,186.566,260.303,168.207,280.499z"/>
		<path d="M221.451,14.279c-42.229-6.732-86.292-4.284-129.132-6.732c-1.224,0-1.836,0-1.836,0.612c-1.836,0-3.06,0.612-3.06,2.448
			c-4.896,36.108-9.18,75.276-4.284,111.384c0,1.836,3.06,1.224,3.06-0.612c4.284-35.496,4.284-71.604,7.956-107.712
			c41.616,4.896,85.68,11.628,127.296,6.732C223.898,20.399,225.123,14.891,221.451,14.279z"/>
		<path d="M204.314,35.699c0-1.224-1.224-2.448-2.447-2.448c-31.824-3.06-64.26-3.672-96.084-3.672c-1.836,0-3.06,1.224-3.06,3.06
			c-0.612,11.016-1.224,22.644-1.836,33.66c0,4.284,0.612,21.42-1.224,31.212l0,0c-3.672,0-4.896,4.896-3.06,6.732
			c-1.224,0.612,0,2.448,0.612,1.836c0.612,0,1.224-0.612,1.836-0.612c34.272-1.836,67.932-0.612,102.204,2.448
			c1.224,0,2.448-1.224,2.448-2.448C204.314,82.211,204.314,58.955,204.314,35.699z M194.522,101.795
			c-4.284,2.448-18.972-1.836-23.256-2.448c-6.732-0.612-12.852-1.224-19.584-1.224c-15.3-0.612-30.6-0.612-45.9,0
			c3.06-11.016,1.224-27.54,1.836-34.884c0-3.672-0.612-19.584,1.836-22.644c4.284-6.12,14.688-3.672,21.42-3.06
			c15.912,0.612,31.824,1.224,47.735,1.224c7.956,0,16.524-2.448,21.421,4.896c2.447,4.284,0,18.972,0,23.256
			C199.419,76.703,203.703,96.287,194.522,101.795z"/>
	</g>
</g>
<g>
</g>
<g>
</g>
<g>
</g>
<g>
</g>
<g>
</g>
<g>
</g>
<g>
</g>
<g>
</g>
<g>
</g>
<g>
</g>
<g>
</g>
<g>
</g>
<g>
</g>
<g>
</g>
<g>
</g>
</svg>
