<?xml version="1.0" encoding="iso-8859-1"?>
<!-- Generator: Adobe Illustrator 19.0.0, SVG Export Plug-In . SVG Version: 6.00 Build 0)  -->
<svg version="1.1" id="Capa_1" xmlns="http://www.w3.org/2000/svg" xmlns:xlink="http://www.w3.org/1999/xlink" x="0px" y="0px"
	 viewBox="0 0 692.949 692.949" style="enable-background:new 0 0 692.949 692.949;" xml:space="preserve">
<g>
	<g>
		<path d="M462.277,692.949h-231.6c-30.176,0-55.671-26.363-55.671-57.568v-463.91C175.008,76.921,251.929,0,346.477,0
			c45.433,0,88.244,17.59,120.55,49.531c32.28,31.912,50.358,74.469,50.905,119.828c0.002,33.068-26.729,59.799-59.584,59.799
			c-32.683,0-59.302-26.444-59.585-59.059c-0.002-0.096-0.002-0.19-0.002-0.287c0-29.231-23.456-53.011-52.287-53.011
			c-29.099,0-52.775,23.675-52.775,52.775s23.675,52.773,52.775,52.773c94.548,0,171.469,76.921,171.469,171.471v241.564
			C517.948,666.586,492.453,692.949,462.277,692.949z M346.477,35.406c-75.025,0-136.065,61.04-136.065,136.065v463.91
			c0,11.599,9.66,22.163,20.265,22.163h231.6c10.605,0,20.265-10.564,20.265-22.163V393.817
			c0-75.027-61.038-136.065-136.065-136.065c-48.622,0-88.18-39.556-88.18-88.178s39.556-88.18,88.18-88.18
			c48.213,0,87.462,39.429,87.692,87.988c0,0.063,0,0.127,0,0.19c0,13.333,10.848,24.179,24.181,24.179s24.179-10.848,24.179-24.179
			C481.634,95.688,420.6,35.406,346.477,35.406z"/>
		<g>
			<path d="M360.12,568.906l-0.519,0.414C359.777,569.184,359.952,569.05,360.12,568.906z"/>
			<path d="M334.469,569.341c-0.19-0.151-0.366-0.291-0.56-0.447C334.09,569.05,334.28,569.195,334.469,569.341z"/>
			<path d="M391.726,398.282c-17.619,0-33.506,7.799-44.704,20.291l-0.002-0.002c-11.201-12.49-27.086-20.289-44.704-20.289
				c-33.922,0-61.423,28.909-61.423,64.569c0,19.584,8.296,37.133,21.392,48.975l0.002,0.002c0,0,71.991,57.363,72.182,57.514
				c3.461,2.721,7.812,4.356,12.553,4.356c4.754,0,9.117-1.644,12.58-4.378l72.153-57.492
				c13.098-11.842,21.392-29.391,21.392-48.977C453.149,427.191,425.65,398.282,391.726,398.282z"/>
		</g>
	</g>
</g>
<g>
</g>
<g>
</g>
<g>
</g>
<g>
</g>
<g>
</g>
<g>
</g>
<g>
</g>
<g>
</g>
<g>
</g>
<g>
</g>
<g>
</g>
<g>
</g>
<g>
</g>
<g>
</g>
<g>
</g>
</svg>
