<?xml version="1.0" encoding="iso-8859-1"?>
<!-- Generator: Adobe Illustrator 16.0.0, SVG Export Plug-In . SVG Version: 6.00 Build 0)  -->
<!DOCTYPE svg PUBLIC "-//W3C//DTD SVG 1.1//EN" "http://www.w3.org/Graphics/SVG/1.1/DTD/svg11.dtd">
<svg version="1.1" id="Capa_1" xmlns="http://www.w3.org/2000/svg" xmlns:xlink="http://www.w3.org/1999/xlink" x="0px" y="0px"
	 width="365.805px" height="365.805px" viewBox="0 0 365.805 365.805" style="enable-background:new 0 0 365.805 365.805;"
	 xml:space="preserve">
<g>
	<g>
		<path d="M330.827,309.445C330.827,309.445,330.827,310.057,330.827,309.445c-14.688-23.256-27.54-47.124-40.393-71.604
			c10.404-13.464,11.628-35.495,9.792-50.796c-6.12-53.855-32.436-108.324-50.796-159.12c-1.224-3.672-6.12-3.672-7.956-1.224
			c0,0,0,0-0.611,0c0-0.612,0-1.224,0-1.836c-5.509-9.792-21.42-12.853-32.437-12.24c-11.016,0.612-20.808,4.284-28.764,11.628
			c-4.284-6.12-11.016-11.016-16.524-14.076c-9.18-4.896-18.972-6.731-29.988-5.508c-3.06,0.612-2.448,4.896,0.612,4.896
			c9.18-0.612,18.972,1.836,26.928,6.731c6.12,3.672,9.792,8.568,13.464,13.464c0,0.612,0,0.612,0,1.225
			c-16.524-4.896-31.212-9.181-44.676-20.196c-0.612-0.612-1.836-0.612-2.448,0c-0.612-0.612-1.836-0.612-2.448,0.612
			c-26.316,47.735-50.796,98.531-65.484,151.164c-7.344,27.54,1.224,47.124,22.644,56.916
			c-14.076,25.704-25.704,52.632-35.496,80.172c-14.688-3.061-37.944-3.672-44.676,11.628
			c-8.568,17.748,20.196,23.868,31.212,26.928c12.24,3.672,44.676,15.3,55.08,2.448c10.404-12.852-4.896-26.316-15.3-33.048
			c-0.612-0.612-1.224-0.612-1.224-0.612c10.404-26.928,21.42-53.855,28.764-81.396c50.796,18.359,72.216-94.86,78.336-158.509
			c5.508,39.78,17.136,78.336,32.436,115.668c9.792,22.645,25.704,71.604,59.364,66.709c0.611,0,1.836-0.612,2.447-0.612
			c10.404,22.644,20.809,47.736,33.66,69.768c-12.24,6.12-31.824,20.196-22.644,34.884c10.403,15.912,34.271,4.284,46.512-2.447
			c11.628-6.12,37.332-20.196,35.496-36.108C363.875,299.653,338.783,303.937,330.827,309.445z M59.099,319.237
			c-1.224,4.284,5.508,6.12,6.732,1.836c0.612-2.448,1.836-4.284,2.448-6.731l0,0c7.956,4.896,11.628,4.896,8.568,15.3
			c-2.448,9.18-1.224,7.956-8.568,7.344c-11.628-1.224-23.256-3.672-34.272-6.732c-3.672-1.224-7.344-2.447-11.628-3.672
			c-3.672-1.224-7.956-3.06-11.628-4.896c0.612-3.672,1.836-7.344,2.448-11.628c6.12-6.12,20.196-5.509,29.376-4.896
			c-1.224,4.284-3.06,8.568-4.284,13.464c-1.224,4.284,5.508,7.345,7.344,3.061c15.3-32.437,29.376-66.708,39.78-100.98
			c2.448,0.612,4.896,1.836,7.956,2.448C80.519,254.365,70.115,287.413,59.099,319.237z M90.923,210.301
			c-1.224-0.612-1.836-0.612-2.448,0c-12.24-9.793-21.42-23.257-20.196-41.005c1.224-15.912,11.628-36.107,16.524-50.796
			c4.284-11.628,8.568-23.256,13.464-34.884c0.612,0,1.224,0,1.836-0.612c0.612,0,0.612-0.611,1.224-0.611
			c17.748-1.225,34.884,4.896,52.02,1.836c4.896-0.612,12.852-3.061,17.136-7.345C159.467,138.697,138.659,229.885,90.923,210.301z
			 M110.507,76.884c6.732-3.672,14.076-6.731,22.032-8.567c5.508-1.225,11.628-1.836,17.748-1.836c3.672,0,7.956,0,11.628,0.611
			c-1.836,6.12-4.896,9.181-10.404,9.181C138.659,81.168,124.583,76.884,110.507,76.884z M171.707,67.092
			C171.707,67.092,171.707,66.481,171.707,67.092c-4.284-9.792-22.644-7.344-30.6-6.731c-14.076,1.224-27.54,5.508-39.168,13.464
			c7.956-19.584,16.524-39.168,25.704-58.752c12.24,12.24,29.988,21.42,47.736,19.584c0.612,0,0.612,0,0.612-0.612
			c0,1.225,0,3.061,0,4.284C174.767,46.285,173.543,56.077,171.707,67.092z M210.263,21.193c9.181,0,15.912,3.672,23.256,6.731
			c-6.731,1.225-13.464,3.061-20.195,3.061c-9.181,0.611-18.36-0.612-27.54-3.061C193.739,23.64,201.695,21.193,210.263,21.193z
			 M241.475,32.208c4.284,13.464,9.181,27.54,14.076,41.004c-6.12-4.284-15.3-7.344-19.584-9.18
			c-15.3-5.508-31.824-6.732-47.124-1.836c-1.836-9.181-3.672-18.36-4.896-27.54C201.083,41.388,226.175,44.449,241.475,32.208z
			 M249.431,81.781c-0.611,7.344-38.556-5.508-55.691-12.24c7.344-1.224,15.3-1.224,22.644-0.612
			C223.115,69.541,250.043,73.825,249.431,81.781z M247.595,228.048c-12.24-9.18-20.195-35.495-25.092-48.96
			c-6.12-15.3-12.24-31.212-17.136-47.735c-6.12-19.584-10.404-39.168-14.688-58.752c17.748,9.18,61.2,28.764,69.769,15.3
			c4.896,14.076,9.792,28.151,14.688,42.228c4.896,14.076,9.792,28.765,12.853,43.452c1.836,9.18,3.672,18.36,3.672,27.54
			C291.659,218.256,283.091,255.588,247.595,228.048z M353.471,325.969c-6.731,7.956-15.912,14.075-25.092,18.972
			c-6.12,3.672-42.228,22.032-33.66-4.896c1.836-4.896,9.792-12.239,15.3-16.523c3.061,4.284,5.509,9.18,9.181,13.464
			c1.224,1.836,4.284,0.612,3.672-1.836c-9.18-30.601-27.54-59.977-42.84-88.74c2.447-1.224,4.896-3.06,6.731-4.896
			c11.628,29.376,26.929,58.14,44.677,84.456c2.447,3.672,8.567,0.611,6.119-3.673c-1.836-3.06-3.672-6.12-5.508-9.18
			c4.284-1.836,9.792-3.672,14.688-2.448C354.695,312.504,360.203,318.625,353.471,325.969z"/>
		<path d="M210.875,95.245L210.875,95.245c1.224-1.224,0-3.06-1.836-3.06c-5.508,1.224-1.836,10.403,3.06,8.567
			C216.383,99.529,214.547,94.021,210.875,95.245z"/>
		<path d="M228.623,99.529c-0.612-3.061-4.896-1.836-4.284,1.224c0.612,3.672,1.224,6.732,1.836,10.404
			c0.612,3.06,4.896,1.836,4.284-1.225C230.459,106.26,229.847,102.588,228.623,99.529z"/>
		<path d="M224.339,113.605c-1.836,0-4.284-1.225-4.284-3.673c0-2.447-3.672-2.447-3.672,0c-0.612,4.896,3.672,9.181,8.568,7.956
			C227.399,117.888,226.787,113.605,224.339,113.605z"/>
		<path d="M268.403,205.405c0,0.612-3.061,2.448-3.672,0.612c0-2.448-3.673-2.448-4.284,0c-0.612,7.344,12.852,7.956,12.239-0.612
			C272.687,203.569,269.015,203.569,268.403,205.405z"/>
		<path d="M279.419,187.044c-1.224-3.672-4.896-5.508-9.18-4.896c-3.672,0.611-6.12,3.672-6.12,7.344
			c0,1.836,2.448,2.448,3.672,1.225c1.224-1.837,4.896-2.448,6.731-0.612C276.971,191.941,280.643,190.105,279.419,187.044z"/>
		<path d="M250.655,188.88c-0.612,0.612-1.836,1.225-2.448,0c-1.224-2.448-4.896-0.611-3.672,1.837
			c1.836,4.283,7.956,3.672,9.792-0.612C255.551,188.269,251.879,186.432,250.655,188.88z"/>
		<path d="M106.835,193.777c-0.612,4.284-6.732,3.06-6.12-1.224c0-0.612-0.612-1.225-1.224-0.612
			c-1.836,3.06-0.612,6.731,3.06,7.956c3.672,1.224,6.732-1.836,6.732-5.508C109.283,192.553,106.835,191.941,106.835,193.777z"/>
		<path d="M112.955,176.64c-0.612-0.611-1.836,0-2.448,0c-1.224,1.225-3.06,2.448-4.284,3.673c-1.836,1.224,0.612,4.283,2.448,2.447
			c1.224-0.611,1.836-1.224,3.06-2.447c0.612,0.611,0.612,1.836,0.612,3.06s1.836,1.836,2.448,0.612
			C117.239,181.537,115.403,178.476,112.955,176.64z"/>
		<path d="M90.311,174.804c-5.508-5.508-14.076,5.509-7.956,10.404c1.224,0.612,2.448-0.612,1.836-1.836
			c-1.836-2.448,1.224-6.12,4.284-5.508C90.311,178.476,91.535,176.029,90.311,174.804z"/>
		<path d="M144.779,99.529c-1.836-6.12-11.016-4.284-11.628,1.836c-0.612,3.06,4.284,6.12,5.508,2.448
			c0.612-0.612,2.448-0.612,3.06-0.612C144.167,103.201,145.391,101.365,144.779,99.529z"/>
		<path d="M133.763,119.113c-2.448,0.611-3.672,1.836-6.12,1.836c-2.448,0-4.896-1.225-6.732-3.061
			c-1.224-1.224-3.672,0.612-2.448,1.836c3.672,4.896,13.464,7.956,17.136,1.837C136.211,119.724,134.987,118.5,133.763,119.113z"/>
		<path d="M154.571,116.665c-3.672,0.612-7.956,1.224-9.792-2.448c-1.224-2.447-4.896-1.836-4.284,1.225
			c1.224,6.731,12.24,12.239,16.524,4.896C157.631,117.888,156.407,116.052,154.571,116.665z"/>
	</g>
</g>
<g>
</g>
<g>
</g>
<g>
</g>
<g>
</g>
<g>
</g>
<g>
</g>
<g>
</g>
<g>
</g>
<g>
</g>
<g>
</g>
<g>
</g>
<g>
</g>
<g>
</g>
<g>
</g>
<g>
</g>
</svg>
