<?xml version="1.0" encoding="iso-8859-1"?>
<!-- Generator: Adobe Illustrator 16.0.0, SVG Export Plug-In . SVG Version: 6.00 Build 0)  -->
<!DOCTYPE svg PUBLIC "-//W3C//DTD SVG 1.1//EN" "http://www.w3.org/Graphics/SVG/1.1/DTD/svg11.dtd">
<svg version="1.1" id="Capa_1" xmlns="http://www.w3.org/2000/svg" xmlns:xlink="http://www.w3.org/1999/xlink" x="0px" y="0px"
	 width="307.381px" height="307.381px" viewBox="0 0 307.381 307.381" style="enable-background:new 0 0 307.381 307.381;"
	 xml:space="preserve">
<g>
	<g>
		<g>
			<path d="M153.595,129.534c25.092-25.704,50.796-53.856,69.768-84.456c0-0.612,0.612-1.225,0.612-1.225
				c0.611-0.611,0.611-2.447-0.612-3.06h-0.611c0,0,0,0-0.611-0.612c0-0.612,0-0.612,0-1.224
				c-5.508-14.076-12.853-25.092-21.42-36.72c-1.225-1.837-3.672-2.448-4.896-0.612c-0.612,0.612-1.225,1.224-1.837,1.836
				c-9.792-4.284-20.808-2.448-31.212-2.448c-1.224,0-2.447,0-3.672,0l0,0c-0.611-1.224-3.061-1.224-3.672-0.612
				c-0.612,0.612-0.612,0.612-0.612,1.225c-12.852,0.612-26.315,1.836-39.167,3.06c-1.224-1.224-2.448-1.836-3.672-2.447
				c-4.896-0.612-8.568,5.508-11.016,8.567c-6.12,8.568-11.016,17.748-15.3,26.928c-0.612,1.225,0,2.448,0.612,3.673
				c-1.224,0.611-1.224,1.836-1.224,3.06c13.464,29.376,34.272,58.14,53.856,84.456c-45.288,4.284-80.784,56.304-75.888,99.756
				c5.508,48.96,48.96,82.62,97.92,78.336c45.288-4.283,85.068-42.228,83.845-89.352
				C242.336,176.658,197.66,125.861,153.595,129.534z M140.743,46.914c10.404,0.611,21.42,0.611,31.824,0.611
				c-9.792,20.809-16.523,44.064-23.256,66.097C148.088,91.59,145.639,68.945,140.743,46.914z M155.432,117.294
				c8.567-23.256,17.748-46.512,23.868-70.38c11.628,0,23.256-0.612,34.271-1.836C192.764,67.722,174.403,93.426,155.432,117.294z
				 M198.884,10.193c7.344,8.568,13.464,19.584,17.748,29.988c-11.629-1.836-23.868-2.448-36.108-3.06
				C187.255,28.554,194.6,19.374,198.884,10.193z M190.928,6.521c-2.448,3.672-4.896,7.345-7.345,11.628
				c-3.061,4.896-6.119,9.792-9.181,15.301c-4.283-8.568-8.567-17.137-12.239-26.316C171.344,5.91,182.359,4.074,190.928,6.521z
				 M157.268,8.357c4.284,9.181,7.956,18.973,12.24,28.152c-9.792,0-20.196,0-29.988,0C146.251,27.941,152.372,18.149,157.268,8.357
				z M148.699,8.357c-6.12,7.956-12.24,17.748-16.524,26.929c-2.448-6.732-6.732-12.853-10.404-18.973
				c-1.224-1.836-1.836-4.283-3.672-6.731C128.504,8.97,138.907,8.97,148.699,8.357z M99.739,24.27
				c2.448-3.672,6.732-17.136,12.852-14.076c1.836,0.612,3.672,7.345,4.284,8.568c1.224,3.061,3.06,5.508,4.284,8.568
				c1.836,3.06,3.672,6.731,5.508,9.792c-11.628,0.611-23.868,0.611-34.884,1.224C94.231,33.45,96.679,29.166,99.739,24.27z
				 M134.011,46.914c2.448,24.479,5.508,49.571,9.18,73.439c-15.912-26.315-33.048-53.244-53.244-75.888
				C104.635,45.078,119.323,46.302,134.011,46.914z M151.759,297.834c-41.004,0-77.112-30.6-79.56-72.828
				c-2.448-45.898,33.048-72.216,70.38-88.128c0.612,1.224,1.836,1.836,3.06,1.836c44.064-1.224,90.577,41.004,87.516,86.904
				C229.483,267.234,191.54,297.834,151.759,297.834z"/>
			<path d="M152.984,151.565c-3.06,0-4.284,1.836-4.284,4.284c-28.764-6.73-58.752,18.36-63.648,47.124
				c-6.12,37.944,18.36,80.784,57.528,86.292C231.319,302.118,241.111,158.91,152.984,151.565z M149.923,278.862
				c-30.6-0.612-49.572-25.704-54.468-53.856c-3.06-17.748,1.224-35.496,14.076-48.348c12.852-12.24,29.376-13.464,45.899-15.3
				c26.929,8.566,48.961,27.54,49.572,58.14C206.228,250.71,181.136,279.474,149.923,278.862z"/>
		</g>
	</g>
</g>
<g>
</g>
<g>
</g>
<g>
</g>
<g>
</g>
<g>
</g>
<g>
</g>
<g>
</g>
<g>
</g>
<g>
</g>
<g>
</g>
<g>
</g>
<g>
</g>
<g>
</g>
<g>
</g>
<g>
</g>
</svg>
