<?xml version="1.0" encoding="iso-8859-1"?>
<!-- Generator: Adobe Illustrator 19.0.0, SVG Export Plug-In . SVG Version: 6.00 Build 0)  -->
<svg version="1.1" id="Capa_1" xmlns="http://www.w3.org/2000/svg" xmlns:xlink="http://www.w3.org/1999/xlink" x="0px" y="0px"
	 viewBox="0 0 611.231 611.231" style="enable-background:new 0 0 611.231 611.231;" xml:space="preserve">
<g>
	<path d="M611.224,151.727c0-18.547-6.935-35.362-18.124-47.532c-0.037-0.046-0.066-0.092-0.103-0.136
		c-0.523-0.624-1.092-1.184-1.681-1.716c-10.991-11.045-25.665-17.807-41.76-17.807H61.664c-16.089,0-30.75,6.755-41.74,17.789
		c-0.593,0.536-1.169,1.103-1.699,1.734c-0.042,0.048-0.072,0.101-0.114,0.149C6.928,116.376,0,133.187,0,151.727v307.777
		c0,18.63,6.998,35.506,18.275,47.69c0.554,0.657,1.138,1.276,1.764,1.832c10.98,10.964,25.595,17.669,41.627,17.669H549.56
		c16.034,0,30.656-6.707,41.635-17.676c0.624-0.554,1.204-1.169,1.755-1.823c11.277-12.184,18.28-29.062,18.28-47.694V151.727
		H611.224z M489.702,412.129c-7.937-5.518-18.853-3.557-24.374,4.387c-5.518,7.941-3.555,18.853,4.387,24.371l73.081,50.783H68.425
		l73.086-50.785c7.941-5.518,9.905-16.43,4.387-24.374c-5.518-7.944-16.432-9.907-24.374-4.389l-84.715,58.869
		c-1.138-3.574-1.786-7.436-1.786-11.487V151.727c0-3.367,0.433-6.611,1.232-9.662l160.5,134.761
		c-2.414,7.16-3.741,14.861-3.741,22.889c0,20.784,8.802,39.396,22.695,51.958l0.007,0.007c0,0,76.378,60.854,76.579,61.016
		c3.669,2.887,8.285,4.621,13.317,4.621c5.045,0,9.675-1.742,13.348-4.645l76.553-60.99c13.9-12.564,22.695-31.183,22.695-51.967
		c0-8.029-1.324-15.73-3.739-22.887l160.5-134.765c0.799,3.054,1.232,6.298,1.232,9.664v307.777c0,4.054-0.65,7.917-1.788,11.492
		L489.702,412.129z M395.071,247.38c-11.35-10.08-26.009-16.167-42.029-16.167c-18.693,0-35.548,8.272-47.429,21.528
		c-11.886-13.256-28.74-21.528-47.434-21.528c-16.018,0-30.68,6.087-42.025,16.167L63.919,119.559h483.385L395.071,247.38z"/>
</g>
<g>
</g>
<g>
</g>
<g>
</g>
<g>
</g>
<g>
</g>
<g>
</g>
<g>
</g>
<g>
</g>
<g>
</g>
<g>
</g>
<g>
</g>
<g>
</g>
<g>
</g>
<g>
</g>
<g>
</g>
</svg>
