<?xml version="1.0" encoding="iso-8859-1"?>
<!-- Generator: Adobe Illustrator 16.0.0, SVG Export Plug-In . SVG Version: 6.00 Build 0)  -->
<!DOCTYPE svg PUBLIC "-//W3C//DTD SVG 1.1//EN" "http://www.w3.org/Graphics/SVG/1.1/DTD/svg11.dtd">
<svg version="1.1" id="Capa_1" xmlns="http://www.w3.org/2000/svg" xmlns:xlink="http://www.w3.org/1999/xlink" x="0px" y="0px"
	 width="299.493px" height="299.492px" viewBox="0 0 299.493 299.492" style="enable-background:new 0 0 299.493 299.492;"
	 xml:space="preserve">
<g>
	<g>
		<path d="M173.545,77.224l36.516-50.049L188.189,0h-36.454h-3.977h-36.454L89.432,27.175l36.519,50.049
			c-50.595,10.955-88.631,56.015-88.631,109.841c0,61.987,50.438,112.428,112.428,112.428c61.992,0,112.427-50.44,112.427-112.428
			C262.173,133.238,224.135,88.178,173.545,77.224z M149.747,262.375c-41.529,0-75.311-33.781-75.311-75.311
			c0-41.531,33.782-75.313,75.311-75.313c41.528,0,75.311,33.782,75.311,75.313C225.057,228.594,191.275,262.375,149.747,262.375z"
			/>
	</g>
</g>
<g>
</g>
<g>
</g>
<g>
</g>
<g>
</g>
<g>
</g>
<g>
</g>
<g>
</g>
<g>
</g>
<g>
</g>
<g>
</g>
<g>
</g>
<g>
</g>
<g>
</g>
<g>
</g>
<g>
</g>
</svg>
